<?xml version="1.0" ?><!DOCTYPE svg  PUBLIC '-//W3C//DTD SVG 1.1//EN'  'http://www.w3.org/Graphics/SVG/1.1/DTD/svg11.dtd' [
	<!ENTITY stroke_color "#000">
	<!ENTITY fill_color "#eee">
]><svg height="55px" viewBox="0 0 55 55" width="55px" xmlns="http://www.w3.org/2000/svg" xmlns:xlink="http://www.w3.org/1999/xlink" stroke-linecap="round" stroke-linejoin="round" stroke-width="3.5" stroke="&stroke_color;" fill="&fill_color;">
 <g>
  <g>
   <path d="M 47.3805 13.0597 L 48.4013 12.414 L 48.784 10.7896 L 47.729 10.2956 L 34.3326 11.2319 L 26.6845 11.9327 L 17.1944 12.7234 L 8.59387 13.6993 C 8.59387 13.6993 7.61517 14.2199 7.63618 14.4721 C 7.62952 15.0018 7.78651 15.9447 8.16515 16.3167 L 15.9158 15.8772 L 27.5437 14.8448 L 40.7022 13.6849 L 47.3805 13.0597 Z " fill="&stroke_color;" stroke="none" stroke-width="2.25" />
   <path d="M 45.0667 12.6321 L 47.1607 12.3367 L 47.6827 11.6628 L 47.1508 11.1093 L 33.9778 12.2232 L 27.4362 12.7989 L 19.3214 13.475 L 14.0987 14.0631 C 14.0987 14.0631 8.81279 14.4353 8.82291 14.5567 C 8.83303 14.6782 8.99449 15.3575 9.52815 15.4353 C 10.0618 15.5132 12.2626 15.3597 12.2626 15.3597 L 18.134 15.0416 L 28.2656 13.9092 L 39.3321 13.2141 L 45.0667 12.6321 Z " stroke="none" stroke-width="2.25" />
  </g>
  <path d="M 3.1656 23.2267 L 9.96579 15.8403 L 9.84854 23.1095 L 16.1797 23.5785 L 9.96579 15.8403 " fill="none" stroke-width="2.25" />
  <path d="M 39.0424 21.1163 L 45.1391 12.4402 L 52.0566 20.9991 L 45.6081 21.1163 L 45.3736 12.4402 " fill="none" stroke-width="2.25" />
  <path d="M 29.6695 14.7354 L 29.1108 13.9987 L 27.5238 13.6436 L 26.9439 14.3386 L 26.7646 23.5759 L 26.8278 28.859 L 26.8278 35.4101 L 27.0862 41.3619 C 27.0862 41.3619 27.5238 42.0625 27.7768 42.0625 C 28.3041 42.0974 29.2568 42.0436 29.659 41.8053 L 29.8645 36.4667 L 29.8013 28.4364 L 29.738 19.3494 L 29.6695 14.7354 Z " fill="&stroke_color;" stroke="none" stroke-width="2.25" />
  <path d="M 28.9341 16.6489 L 28.8135 15.1965 L 28.1853 14.8002 L 27.5896 15.1332 L 27.6057 24.2275 L 27.6362 28.745 L 27.6362 34.3466 L 27.7886 37.9606 C 27.7886 37.9606 27.7206 41.6056 27.8424 41.6056 C 27.9643 41.6056 28.6547 41.5337 28.7765 41.1723 C 28.8984 40.8109 28.9283 39.2934 28.9283 39.2934 L 29.0988 35.2501 L 28.8116 28.2398 L 29.0378 20.6135 L 28.9341 16.6489 Z " stroke="none" stroke-width="2.25" />
  <path d="M 42.2812 38.2594 L 29.1844 38.4312 L 14.3687 38.5859 L 6.84062 38.775 L 5.6375 40.2188 L 5.07031 44.3266 L 6.20469 45.8219 L 21.2609 46.2859 L 29.8719 46.1313 L 40.5625 46.1313 L 50.2734 45.4609 C 50.2734 45.4609 51.4078 44.3285 51.4078 43.6734 C 51.4646 42.3085 51.384 39.8333 50.9953 38.7922 L 42.2812 38.2594 Z M 40.1156 39.1875 L 46.7156 39.7719 C 46.7156 39.7719 49.1856 39.8769 49.775 40.3047 C 50.3644 40.7325 50.4797 43.1597 50.4797 43.5875 C 50.4797 44.0153 44.5328 43.7766 44.5328 43.7766 L 38.6375 44.3094 L 29.5109 44.3094 L 22.1375 44.4297 L 7.30469 44.4813 L 6.75469 42.3844 L 7.40781 40.1844 L 9.77969 39.7547 L 16.2422 39.3938 L 28.6859 40.1844 L 40.1156 39.1875 Z " fill="&stroke_color;" stroke="none" stroke-width="2.25" />
  <path d="M 9.7745 39.7593 L 7.40564 40.1825 L 6.75919 42.3873 L 7.30242 44.4782 L 22.1352 44.4214 L 29.5031 44.3145 L 38.6394 44.3145 L 44.5338 43.7798 C 44.5338 43.7798 50.4788 44.0185 50.4788 43.5907 C 50.4788 43.1629 50.3615 40.7399 49.7721 40.3122 C 49.1826 39.8844 46.7076 39.7796 46.7076 39.7796 L 40.113 39.1811 L 28.6792 40.189 L 16.2408 39.395 L 9.7745 39.7593 Z " stroke="none" stroke-width="2.25" />
  <path d="M 9.50469 22.8766 L 2.81875 23.1172 L 3.04219 25.1109 L 7.51094 31.4359 L 10.6734 31.7797 L 17.3594 25.4547 L 16.6547 22.9969 L 9.50469 22.8766 Z M 9.84844 24.3375 L 14.8328 24.4234 L 14.8328 25.2656 L 10.175 29.975 L 9.43594 29.975 L 5.10469 25.2656 L 5.17344 24.5094 L 9.84844 24.3375 Z " fill="&stroke_color;" stroke="none" stroke-width="2.25" />
  <path d="M 5.18191 24.5085 L 9.84312 24.3406 L 14.8314 24.4245 L 14.8314 25.2645 L 10.1702 29.9683 L 9.43424 29.9683 L 5.10014 25.2645 L 5.18191 24.5085 Z " stroke="none" stroke-width="2.25" />
  <path d="M 26.5462 12.6797 L 27.2931 11.9796 L 28.0794 11.717 L 29.0622 11.8483 L 29.7305 12.3734 L 29.9663 12.986 L 30.045 13.8612 L 29.8484 14.7364 C 29.8484 14.7364 29.5732 15.0864 29.298 15.3052 C 29.0229 15.524 28.5118 15.7428 28.5118 15.7428 L 27.7649 15.6991 L 27.0573 15.3052 L 26.5069 14.6051 L 26.3497 13.5549 L 26.5462 12.6797 Z " fill="&stroke_color;" stroke="none" stroke-width="2.25" />
  <path d="M 27.2889 13.1234 L 27.7264 12.7383 L 28.1869 12.5939 L 28.7625 12.6661 L 29.1539 12.9549 L 29.292 13.2919 L 29.338 13.7732 L 29.2229 14.2546 C 29.2229 14.2546 29.0618 14.4472 28.9006 14.5675 C 28.7394 14.6878 28.4401 14.8082 28.4401 14.8082 L 28.0027 14.7841 L 27.5882 14.5675 L 27.2659 14.1824 L 27.1738 13.6048 L 27.2889 13.1234 Z " stroke="none" stroke-width="2.25" />
  <path d="M 45.1344 20.5219 L 38.4484 20.7625 L 38.6891 22.7562 L 43.1406 29.0813 L 46.3031 29.4422 L 52.9891 23.1172 L 52.2844 20.6422 L 45.1344 20.5219 Z M 45.4781 22 L 50.4797 22.0859 L 50.4797 22.9281 L 45.8047 27.6203 L 45.0828 27.6203 L 40.7344 22.9281 L 40.8203 22.1719 L 45.4781 22 Z " fill="&stroke_color;" stroke="none" stroke-width="2.25" />
  <path d="M 40.8243 22.1637 L 45.4855 21.9957 L 50.4738 22.0797 L 50.4738 22.9196 L 45.8126 27.6234 L 45.0766 27.6234 L 40.7425 22.9196 L 40.8243 22.1637 Z " stroke="none" stroke-width="2.25" />
  <path d="M 8.54918 15.7281 L 9.2961 15.0279 L 10.0823 14.7654 L 11.0651 14.8967 L 11.7334 15.4218 L 11.9693 16.0344 L 12.0479 16.9096 L 11.8514 17.7847 C 11.8514 17.7847 11.5762 18.1348 11.301 18.3536 C 11.0258 18.5724 10.5148 18.7912 10.5148 18.7912 L 9.76785 18.7474 L 9.06023 18.3536 L 8.50987 17.6535 L 8.35262 16.6032 L 8.54918 15.7281 Z " fill="&stroke_color;" stroke="none" stroke-width="2.25" />
  <path d="M 9.2919 16.1717 L 9.72935 15.7866 L 10.1898 15.6422 L 10.7654 15.7144 L 11.1568 16.0032 L 11.295 16.3402 L 11.341 16.8216 L 11.2259 17.303 C 11.2259 17.303 11.0647 17.4955 10.9036 17.6159 C 10.7424 17.7362 10.4431 17.8565 10.4431 17.8565 L 10.0056 17.8325 L 9.59121 17.6159 L 9.26888 17.2308 L 9.17679 16.6531 L 9.2919 16.1717 Z " stroke="none" stroke-width="2.25" />
  <path d="M 43.6053 12.328 L 44.3522 11.6278 L 45.1385 11.3653 L 46.1213 11.4966 L 46.7896 12.0217 L 47.0254 12.6343 L 47.104 13.5095 L 46.9075 14.3846 C 46.9075 14.3846 46.6323 14.7347 46.3571 14.9535 C 46.0819 15.1723 45.5709 15.3911 45.5709 15.3911 L 44.824 15.3473 L 44.1164 14.9535 L 43.566 14.2534 L 43.4087 13.2032 L 43.6053 12.328 Z " fill="&stroke_color;" stroke="none" stroke-width="2.25" />
  <path d="M 44.348 12.7716 L 44.7855 12.3865 L 45.2459 12.2421 L 45.8215 12.3143 L 46.2129 12.6032 L 46.3511 12.9401 L 46.3971 13.4215 L 46.282 13.9029 C 46.282 13.9029 46.1208 14.0954 45.9597 14.2158 C 45.7985 14.3361 45.4992 14.4565 45.4992 14.4565 L 45.0618 14.4324 L 44.6473 14.2158 L 44.325 13.8307 L 44.2329 13.253 L 44.348 12.7716 Z " stroke="none" stroke-width="2.25" />
 </g>
</svg>